<svg xmlns="http://www.w3.org/2000/svg" viewBox="0 0 2000 2000">
  <circle cx="1000" cy="1000" r="1000" fill="#453DA4"/>
  <circle cx="566" cy="541" r="95" fill="#29B286"/>
  <g transform="translate(0.000000,2000.000000) scale(0.100000,-0.100000)" fill="#FDFCFD" stroke="none">
<path d="M9535 13049 c-608 -58 -1166 -301 -1618 -703 -537 -479 -870 -1158
-969 -1971 -16 -132 -16 -571 0 -710 90 -781 363 -1397 832 -1879 456 -468
975 -736 1590 -821 159 -22 605 -31 795 -16 584 47 1075 238 1515 587 121 96
401 381 492 500 330 433 550 1034 609 1656 15 167 6 632 -15 788 -39 278 -104
547 -188 773 -96 257 -280 580 -455 797 -154 192 -399 412 -628 564 -398 265
-769 391 -1280 435 -140 13 -550 12 -680 0z m515 -1389 c587 -72 940 -508
1052 -1300 8 -62 13 -193 12 -380 0 -242 -3 -306 -22 -425 -65 -412 -213 -751
-416 -950 -160 -157 -392 -255 -672 -286 -217 -23 -506 27 -689 119 -256 128
-471 413 -588 777 -74 231 -107 468 -107 775 0 480 100 870 301 1175 61 91
177 217 262 282 124 96 320 179 477 202 41 6 86 13 100 15 54 8 210 5 290 -4z"/>
<path d="M15976 12959 c-219 -29 -404 -105 -591 -244 -149 -110 -359 -338
-501 -542 -16 -24 -35 -43 -41 -43 -10 0 -13 83 -13 384 0 211 -3 391 -6 400
-6 14 -86 16 -804 16 -725 0 -798 -1 -804 -16 -3 -9 -6 -1327 -6 -2930 0
-2560 2 -2915 15 -2928 13 -12 48 -14 208 -12 105 2 468 4 805 5 l612 1 0
1528 c0 920 4 1586 10 1675 29 419 139 688 367 897 117 107 297 208 443 249
266 73 550 78 919 15 80 -13 146 -24 148 -24 2 0 3 351 3 780 0 760 0 780 -19
790 -24 12 -644 12 -745 -1z"/>
<path d="M4760 9866 c0 -2076 -3 -3097 -11 -3167 -37 -367 -163 -600 -394
-730 -87 -48 -223 -93 -334 -109 -113 -17 -389 -7 -559 19 -74 12 -142 21
-153 21 -19 0 -19 -17 -19 -669 l0 -669 28 -6 c15 -3 131 -18 257 -33 209 -24
265 -27 605 -27 406 -1 482 5 731 54 468 94 827 303 1099 641 259 322 405 697
482 1239 9 65 13 858 15 3293 l3 3207 -875 0 -875 0 0 -3064z"/>
  </g>
</svg>
